<?xml version="1.0" encoding="utf-8"?>
<!-- Generator: Adobe Illustrator 17.0.0, SVG Export Plug-In . SVG Version: 6.00 Build 0)  -->
<!DOCTYPE svg PUBLIC "-//W3C//DTD SVG 1.1//EN" "http://www.w3.org/Graphics/SVG/1.1/DTD/svg11.dtd">
<svg version="1.1" id="Layer_1" xmlns="http://www.w3.org/2000/svg" xmlns:xlink="http://www.w3.org/1999/xlink" x="0px" y="0px"
	 width="288px" height="288px" viewBox="0 0 288 288" enable-background="new 0 0 288 288" xml:space="preserve">
<g>
	<g>
		<defs>
			<path id="SVGID_1_" d="M148.245,58.278"/>
		</defs>
		<clipPath id="SVGID_2_">
			<use xlink:href="#SVGID_1_"  overflow="visible"/>
		</clipPath>
	</g>
	<path fill="#EA1361" d="M142.611,46.241c-17.348,0.175-30.308,4.715-38.501,13.482c-5.873,6.29-9.073,14.372-9.56,24.073
		c8.167-0.009,16.306,1.219,24.464,1.035c0.33-5.52,2.277-7.62,2.996-8.387c3.387-3.634,10.606-5.608,20.852-5.716
		c6.767-0.075,12.186-5.612,12.118-12.373C154.91,51.596,149.372,46.169,142.611,46.241"/>
	<g>
		<defs>
			<rect id="SVGID_3_" x="94.482" y="85.766" width="60.18" height="40.166"/>
		</defs>
		<clipPath id="SVGID_4_">
			<use xlink:href="#SVGID_3_"  overflow="visible"/>
		</clipPath>
		<path clip-path="url(#SVGID_4_)" fill="#FDDB00" d="M144.02,101.547c-24.424-3.231-24.859-10.7-25.002-13.156
			c-0.054-0.947-0.059-1.815-0.045-2.623c-8.094,0.523-16.222-0.35-24.332,0.209c-0.049,0.005-0.107,0.005-0.157,0.005
			c-0.01,1.255,0.009,2.522,0.084,3.819c0.496,8.563,4.213,20.437,19.134,28.352c6.994,3.715,15.608,6.153,27.11,7.671
			c0.88,0.121,1.76,0.137,2.617,0.068c5.618-0.463,10.352-4.782,11.126-10.6C155.441,108.587,150.72,102.437,144.02,101.547"/>
	</g>
	<path fill="#51C4D6" d="M173.706,77.963c-1.887,0.156-3.843-0.125-5.711-0.903c-10.226-4.27-18.683-6.4-25.133-6.331
		c-6.763,0.066-12.301-5.357-12.367-12.12c-0.075-6.761,5.341-12.306,12.116-12.368c9.927-0.105,21.315,2.584,34.821,8.214
		c6.241,2.603,9.18,9.775,6.582,16.017C182.189,74.844,178.121,77.601,173.706,77.963"/>
	<path fill="#6C1F60" d="M154.121,57.479c0.554,6.749-4.467,12.673-11.22,13.227c-6.749,0.556-12.673-4.466-13.228-11.218
		c-0.555-6.752,4.465-12.674,11.219-13.229C147.646,45.703,153.568,50.727,154.121,57.479"/>
	<g>
		<defs>
			<path id="SVGID_5_" d="M136.843,169.22"/>
		</defs>
		<clipPath id="SVGID_6_">
			<use xlink:href="#SVGID_5_"  overflow="visible"/>
		</clipPath>
	</g>
	<path fill="#8E4096" d="M172.592,142.53c-0.557-0.082-1.062-0.226-1.525-0.409c-1.433,0.244-2.865,0.469-4.308,0.615
		c-0.238,0.021-0.464,0.031-0.692,0.034c-0.352,5.439-2.268,7.519-2.984,8.282c-3.395,3.632-10.602,5.606-20.852,5.715
		c-6.77,0.075-12.188,5.613-12.123,12.373c0.08,6.761,5.613,12.187,12.373,12.116c17.35-0.176,30.304-4.719,38.497-13.485
		c5.946-6.365,9.155-14.575,9.582-24.445C184.686,144.359,178.359,143.383,172.592,142.53"/>
	<g>
		<defs>
			<rect id="SVGID_7_" x="130.43" y="101.562" width="60.171" height="39.932"/>
		</defs>
		<clipPath id="SVGID_8_">
			<use xlink:href="#SVGID_7_"  overflow="visible"/>
		</clipPath>
		<path clip-path="url(#SVGID_8_)" fill="#73BD45" d="M141.066,125.948c24.433,3.232,24.863,10.7,25.004,13.158
			c0.047,0.858,0.057,1.643,0.047,2.386c8.179-0.76,16.311-2.116,24.48-0.529c0,0.002,0.007,0.002,0.007,0.002
			c0-1.075-0.021-2.16-0.087-3.271c-0.491-8.563-4.213-20.434-19.124-28.348c-7.006-3.719-15.617-6.157-27.108-7.675
			c-0.889-0.12-1.765-0.14-2.624-0.067c-5.623,0.462-10.358,4.781-11.126,10.599C129.65,118.911,134.367,125.061,141.066,125.948"/>
	</g>
	<path fill="#F8A51C" d="M111.381,149.532c1.892-0.153,3.841,0.128,5.706,0.906c10.227,4.268,18.684,6.397,25.145,6.328
		c6.753-0.067,12.294,5.358,12.367,12.12c0.07,6.761-5.344,12.304-12.119,12.369c-9.929,0.102-21.324-2.585-34.816-8.216
		c-6.241-2.604-9.192-9.775-6.587-16.017C102.902,152.65,106.963,149.895,111.381,149.532"/>
	<path fill="#EA1361" d="M130.967,170.018c-0.553-6.751,4.468-12.676,11.221-13.229c6.751-0.554,12.668,4.467,13.223,11.218
		c0.558,6.751-4.464,12.673-11.212,13.229C137.445,181.792,131.521,176.771,130.967,170.018"/>
	<path fill="#1C4481" d="M166.038,143.225c-0.553-6.749,4.471-12.673,11.222-13.229c6.751-0.554,12.668,4.468,13.226,11.221
		c0.552,6.747-4.467,12.673-11.218,13.229C172.518,154.999,166.595,149.973,166.038,143.225"/>
	<path fill="#F17024" d="M94.354,85.605c-0.554-6.749,4.466-12.675,11.222-13.229c6.751-0.557,12.668,4.468,13.223,11.218
		c0.557,6.752-4.464,12.672-11.213,13.229C100.833,97.38,94.906,92.358,94.354,85.605"/>
	<path fill="#0C8643" d="M154.798,112.86c0.552,6.748-4.471,12.673-11.224,13.227c-6.754,0.556-12.671-4.468-13.223-11.215
		c-0.557-6.752,4.461-12.675,11.212-13.229C148.313,101.086,154.24,106.111,154.798,112.86"/>
</g>
</svg>
