<?xml version="1.0" encoding="utf-8"?>
<!-- Generator: Adobe Illustrator 15.0.2, SVG Export Plug-In . SVG Version: 6.00 Build 0)  -->
<!DOCTYPE svg PUBLIC "-//W3C//DTD SVG 1.1//EN" "http://www.w3.org/Graphics/SVG/1.1/DTD/svg11.dtd">
<svg version="1.1" id="Layer_1" xmlns="http://www.w3.org/2000/svg" xmlns:xlink="http://www.w3.org/1999/xlink" x="0px" y="0px"
	 width="288px" height="288px" viewBox="0 0 288 288" enable-background="new 0 0 288 288" xml:space="preserve">
<g>
	<path fill="#56C4CF" d="M67.747,231.412c-0.604-0.432-1.036-1.167-1.036-2.029c0-1.382,1.122-2.462,2.504-2.462
		c0.734,0,1.208,0.22,1.553,0.478c2.503,1.984,5.181,3.107,8.46,3.107s5.352-1.554,5.352-3.8v-0.086
		c0-2.158-1.207-3.321-6.819-4.618c-6.43-1.552-10.056-3.449-10.056-9.02v-0.086c0-5.179,4.315-8.763,10.313-8.763
		c3.799,0,6.862,0.992,9.582,2.808c0.604,0.344,1.164,1.078,1.164,2.113c0,1.381-1.122,2.459-2.503,2.459
		c-0.517,0-0.949-0.129-1.381-0.388c-2.33-1.511-4.574-2.288-6.948-2.288c-3.107,0-4.919,1.598-4.919,3.583v0.085
		c0,2.332,1.381,3.367,7.207,4.747c6.388,1.556,9.667,3.843,9.667,8.849v0.088c0,5.652-4.444,9.018-10.789,9.018
		C74.998,235.208,71.114,233.914,67.747,231.412z"/>
	<path fill="#56C4CF" d="M96.396,206.982c0-1.467,1.165-2.631,2.676-2.631c1.468,0,2.632,1.164,2.632,2.631v10.144h14.417v-10.144
		c0-1.467,1.163-2.631,2.63-2.631c1.512,0,2.676,1.164,2.676,2.631v25.379c0,1.466-1.164,2.631-2.676,2.631
		c-1.468,0-2.63-1.165-2.63-2.631v-10.315h-14.417v10.315c0,1.466-1.164,2.631-2.632,2.631c-1.512,0-2.676-1.165-2.676-2.631
		V206.982z"/>
	<path fill="#56C4CF" d="M127.927,219.76v-0.087c0-8.502,6.56-15.625,15.838-15.625c9.279,0,15.754,7.036,15.754,15.538v0.087
		c0,8.502-6.562,15.622-15.84,15.622C134.399,235.295,127.927,228.262,127.927,219.76z M153.949,219.76v-0.087
		c0-5.871-4.271-10.747-10.271-10.747c-5.999,0-10.185,4.789-10.185,10.66v0.087c0,5.868,4.271,10.702,10.271,10.702
		C149.762,230.375,153.949,225.628,153.949,219.76z"/>
	<path fill="#56C4CF" d="M165.613,221.96v-14.978c0-1.467,1.166-2.631,2.674-2.631c1.471,0,2.637,1.164,2.637,2.631v14.763
		c0,5.608,2.889,8.587,7.638,8.587c4.702,0,7.597-2.807,7.597-8.372v-14.978c0-1.467,1.166-2.631,2.674-2.631
		c1.47,0,2.635,1.164,2.635,2.631v14.717c0,9.021-5.094,13.555-12.991,13.555C170.617,235.254,165.613,230.723,165.613,221.96z"/>
	<path fill="#56C4CF" d="M206.142,209.488h-7.338c-1.381,0-2.46-1.125-2.46-2.461c0-1.338,1.079-2.459,2.46-2.459h20.065
		c1.34,0,2.42,1.121,2.42,2.459c0,1.336-1.08,2.461-2.42,2.461h-7.377v22.873c0,1.466-1.209,2.631-2.676,2.631
		c-1.468,0-2.676-1.165-2.676-2.631L206.142,209.488L206.142,209.488z"/>
</g>
<g>
	<defs>
		<rect id="SVGID_1_" x="95.807" y="46.461" width="96.387" height="135.066"/>
	</defs>
	<clipPath id="SVGID_2_">
		<use xlink:href="#SVGID_1_"  overflow="visible"/>
	</clipPath>
	<path clip-path="url(#SVGID_2_)" fill="#E71561" d="M142.95,46.464c-17.349,0.175-29.152,4.739-37.345,13.506
		c-5.873,6.29-9.311,15.323-9.799,25.024c8.167-0.009,16.541,0.16,24.697-0.024c0.33-5.519,2.282-7.513,3.001-8.279
		c3.387-3.634,10.605-5.608,20.851-5.717c6.77-0.074,12.188-5.61,12.121-12.373c-0.072-6.758-5.766-12.209-12.526-12.137"/>
	<path clip-path="url(#SVGID_2_)" fill="#FBDB00" d="M145.516,101.793c-24.424-3.23-24.859-10.699-25.002-13.155
		c-0.055-0.947-0.061-1.815-0.045-2.623c-8.095,0.522-16.224-0.351-24.332,0.209c-0.05,0.005-0.279-1.229-0.329-1.229
		c-0.01,1.255,0.181,3.756,0.255,5.054c0.496,8.562,4.213,20.437,19.135,28.351c6.993,3.716,15.607,6.154,27.11,7.672
		c0.879,0.121,1.76,0.137,2.618,0.068c5.615-0.463,10.352-4.783,11.125-10.601C156.938,108.833,152.217,102.684,145.516,101.793"/>
	<path clip-path="url(#SVGID_2_)" fill="#56C4CF" d="M175.201,78.209c-1.889,0.156-3.842-0.125-5.711-0.902
		c-10.227-4.271-18.684-6.4-25.135-6.331c-6.762,0.065-12.3-5.357-12.365-12.12c-0.075-6.761,4.184-12.33,10.96-12.392
		c9.927-0.105,22.472,2.607,35.978,8.237c6.24,2.604,9.178,9.775,6.582,16.018C183.684,75.091,179.617,77.848,175.201,78.209"/>
	<path clip-path="url(#SVGID_2_)" fill="#6B2161" d="M155.656,58.901c-0.096,6.771-5.66,12.187-12.438,12.092
		c-6.771-0.095-12.186-5.661-12.091-12.436s5.659-12.187,12.435-12.092C150.34,46.56,155.754,52.128,155.656,58.901"/>
	<path clip-path="url(#SVGID_2_)" fill="#8E4096" d="M174.088,142.775c-0.559-0.082-1.062-0.225-1.525-0.408
		c-1.434,0.244-1.141-0.007-2.613,0.144c-0.24,0.021-2.26-2.554-2.299-1.531c0.299,5.187-1.908,9.456-3.072,10.619
		c-3.629,3.429-9.703,5.415-20.853,5.415c-6.77,0-12.188,5.613-12.123,12.373c0.08,6.76,6.347,12.141,13.347,12.141
		c17.352-0.176,29.33-4.744,37.525-13.51c5.945-6.365,9.291-16.093,9.719-25.961C187.096,140.479,179.855,143.629,174.088,142.775"
		/>
	<path clip-path="url(#SVGID_2_)" fill="#73BC44" d="M142.561,126.193c24.434,3.232,24.865,10.701,25.004,13.158
		c0.047,0.859,0.059,1.645,0.047,2.387c8.18-0.76,16.312-2.115,24.482-0.529c0,0.002,0-0.002,0-0.002
		c0-1.074-0.016-2.156-0.08-3.268c-0.492-8.562-4.213-20.433-19.125-28.347c-7.006-3.719-15.617-6.157-27.109-7.675
		c-0.887-0.12-1.765-0.142-2.624-0.067c-5.622,0.462-10.357,4.781-11.126,10.6C131.145,119.158,135.861,125.307,142.561,126.193"/>
	<path clip-path="url(#SVGID_2_)" fill="#F7A51C" d="M112.876,149.777c1.892-0.152,3.841,0.129,5.706,0.906
		c10.227,4.269,18.605,6.33,25.418,6.33c6.754,0,10.877,5.493,10.949,12.256c0.07,6.76-2.699,11.479-9.699,12.255
		c-9.93,0.104-22.599-2.608-36.091-8.239c-6.241-2.604-9.192-9.775-6.587-16.018C104.396,152.896,108.458,150.141,112.876,149.777"
		/>
	<path clip-path="url(#SVGID_2_)" fill="#E71561" d="M132.462,170.264c-0.554-6.75,4.468-12.676,11.221-13.229
		c6.753-0.555,12.669,4.467,13.224,11.218c0.559,6.751-4.465,12.673-11.213,13.229C138.939,182.038,133.016,177.018,132.462,170.264
		"/>
	<path clip-path="url(#SVGID_2_)" fill="#F27124" d="M95.849,85.852c-0.554-6.749,4.467-12.675,11.223-13.229
		c6.751-0.557,12.801,4.716,13.367,11.602c0.568,6.888-4.608,12.289-11.357,12.846c-6.753,0.558-12.68-4.471-13.232-11.222"/>
	<path clip-path="url(#SVGID_2_)" fill="#0A8743" d="M156.293,113.106c0.553,6.747-4.676,12.427-11.359,12.975
		c-6.983,0.913-12.536-4.216-13.088-10.963c-0.557-6.752,4.598-12.657,11.553-13.227
		C150.354,101.316,155.734,106.357,156.293,113.106"/>
	<path clip-path="url(#SVGID_2_)" fill="#1C4682" d="M180.096,153.589c6.627,0,11.598-5.574,11.598-12.13
		c0-6.557-4.971-11.865-11.598-11.865c-6.625,0-11.998,5.371-11.998,11.997S173.471,153.589,180.096,153.589"/>
	<path clip-path="url(#SVGID_2_)" fill="none" stroke="#1C4682" d="M180.096,153.589c6.627,0,11.598-5.574,11.598-12.13
		c0-6.557-4.971-11.865-11.598-11.865c-6.625,0-11.998,5.371-11.998,11.997S173.471,153.589,180.096,153.589z"/>
</g>
</svg>
