<?xml version="1.0" encoding="utf-8"?>
<!-- Generator: Adobe Illustrator 15.0.2, SVG Export Plug-In . SVG Version: 6.00 Build 0)  -->
<!DOCTYPE svg PUBLIC "-//W3C//DTD SVG 1.1//EN" "http://www.w3.org/Graphics/SVG/1.1/DTD/svg11.dtd">
<svg version="1.1" id="Layer_1" xmlns="http://www.w3.org/2000/svg" xmlns:xlink="http://www.w3.org/1999/xlink" x="0px" y="0px"
	 width="288px" height="288px" viewBox="0 0 288 288" enable-background="new 0 0 288 288" xml:space="preserve">
<g>
	<path fill="#51C4D6" d="M36.907,280.146c-1.064-0.76-1.827-2.059-1.827-3.576c0-2.438,1.981-4.34,4.419-4.34
		c1.292,0,2.13,0.377,2.74,0.836c4.415,3.504,9.138,5.481,14.926,5.481c5.789,0,9.445-2.741,9.445-6.704v-0.148
		c0-3.809-2.133-5.865-12.033-8.147c-11.349-2.739-17.746-6.097-17.746-15.919v-0.154c0-9.135,7.615-15.459,18.201-15.459
		c6.704,0,12.11,1.754,16.907,4.955c1.067,0.606,2.056,1.902,2.056,3.725c0,2.438-1.978,4.341-4.414,4.341
		c-0.915,0-1.677-0.224-2.438-0.681c-4.114-2.668-8.074-4.037-12.263-4.037c-5.481,0-8.681,2.814-8.681,6.317v0.155
		c0,4.111,2.437,5.941,12.718,8.378c11.271,2.742,17.059,6.778,17.059,15.608v0.156c0,9.978-7.844,15.918-19.041,15.918
		C49.703,286.852,42.847,284.564,36.907,280.146z"/>
	<path fill="#51C4D6" d="M85.983,234.68c0-2.511,1.979-4.57,4.571-4.57c2.589,0,4.645,2.06,4.645,4.57v17.363
		c2.588-3.732,6.318-7.008,12.566-7.008c9.064,0,14.316,6.096,14.316,15.385v21.482c0,2.586-1.978,4.564-4.567,4.564
		c-2.589,0-4.648-1.979-4.648-4.564v-18.659c0-6.244-3.122-9.828-8.604-9.828c-5.333,0-9.062,3.731-9.062,9.978v18.51
		c0,2.588-2.056,4.565-4.645,4.565c-2.515,0-4.571-1.979-4.571-4.565L85.983,234.68L85.983,234.68z"/>
	<path fill="#51C4D6" d="M131.016,266.213v-0.154c0-11.498,9.14-21.022,21.478-21.022c12.338,0,21.399,9.37,21.399,20.868v0.154
		c0,11.424-9.137,20.941-21.553,20.941C140.078,287,131.016,277.637,131.016,266.213z M164.679,266.213v-0.154
		c0-7.082-5.105-12.949-12.338-12.949c-7.389,0-12.11,5.793-12.11,12.793v0.156c0,7.006,5.104,12.873,12.263,12.873
		C159.957,278.932,164.679,273.141,164.679,266.213z"/>
	<path fill="#51C4D6" d="M219.008,281.902c0,2.512-2.06,4.564-4.647,4.564c-2.512,0-4.646-1.979-4.646-4.564v-2.059
		c-2.588,3.807-6.321,7.081-12.565,7.081c-9.062,0-14.318-6.09-14.318-15.46v-21.4c0-2.592,2.059-4.645,4.568-4.645
		c2.59,0,4.646,2.053,4.646,4.645v18.66c0,6.244,3.122,9.748,8.605,9.748c5.33,0,9.062-3.658,9.062-9.902v-18.506
		c0-2.59,2.057-4.644,4.646-4.644c2.514,0,4.646,2.052,4.646,4.644L219.008,281.902L219.008,281.902z"/>
	<path fill="#51C4D6" d="M232.435,274.971v-21.172h-1.521c-2.211,0-3.963-1.755-3.963-3.963s1.752-3.957,3.963-3.957h1.521v-6.857
		c0-2.513,2.058-4.571,4.646-4.571c2.513,0,4.568,2.06,4.568,4.571v6.857h7.233c2.211,0,4.037,1.749,4.037,3.957
		s-1.826,3.963-4.037,3.963h-7.233v19.727c0,3.578,1.826,5.022,4.949,5.022c1.066,0,1.981-0.229,2.284-0.229
		c2.058,0,3.886,1.68,3.886,3.807c0,1.684-1.141,3.053-2.438,3.585c-1.98,0.681-3.885,1.067-6.321,1.067
		C237.233,286.777,232.435,283.809,232.435,274.971z"/>
</g>
<g>
	<g>
		<defs>
			<rect id="SVGID_1_" x="71.783" y="1.001" width="144.434" height="202.591"/>
		</defs>
		<clipPath id="SVGID_2_">
			<use xlink:href="#SVGID_1_"  overflow="visible"/>
		</clipPath>
		<path clip-path="url(#SVGID_2_)" fill="#E71561" d="M142.426,1.005c-25.997,0.264-43.684,7.109-55.961,20.259
			c-8.801,9.435-13.952,22.983-14.684,37.535c12.238-0.014,24.787,0.239,37.008-0.036c0.495-8.278,3.42-11.27,4.497-12.418
			c5.076-5.451,15.892-8.412,31.245-8.575c10.145-0.111,18.264-8.416,18.163-18.559c-0.108-10.137-8.641-18.313-18.77-18.206"/>
	</g>
	<g>
		<defs>
			<rect id="SVGID_3_" x="71.783" y="1.001" width="144.434" height="202.591"/>
		</defs>
		<clipPath id="SVGID_4_">
			<use xlink:href="#SVGID_3_"  overflow="visible"/>
		</clipPath>
		<path clip-path="url(#SVGID_4_)" fill="#FBDB00" d="M146.271,83.996c-36.599-4.844-37.25-16.047-37.465-19.731
			c-0.082-1.42-0.091-2.723-0.067-3.934c-12.13,0.783-24.312-0.527-36.461,0.313c-0.075,0.008-0.418-1.843-0.493-1.843
			c-0.016,1.882,0.271,5.634,0.382,7.581c0.743,12.842,6.313,30.654,28.674,42.525c10.479,5.574,23.387,9.231,40.624,11.507
			c1.317,0.181,2.638,0.206,3.923,0.103c8.414-0.694,15.512-7.174,16.671-15.901C163.386,94.556,156.312,85.333,146.271,83.996"/>
	</g>
	<g>
		<defs>
			<rect id="SVGID_5_" x="71.783" y="1.001" width="144.434" height="202.591"/>
		</defs>
		<clipPath id="SVGID_6_">
			<use xlink:href="#SVGID_5_"  overflow="visible"/>
		</clipPath>
		<path clip-path="url(#SVGID_6_)" fill="#56C4CF" d="M190.754,48.622c-2.83,0.233-5.757-0.188-8.559-1.353
			c-15.324-6.407-27.996-9.6-37.664-9.497c-10.133,0.097-18.431-8.035-18.528-18.18c-0.113-10.141,6.27-18.494,16.423-18.587
			c14.875-0.157,33.674,3.911,53.912,12.356c9.351,3.906,13.753,14.662,9.863,24.026C203.465,43.945,197.371,48.08,190.754,48.622"
			/>
	</g>
	<g>
		<defs>
			<rect id="SVGID_7_" x="71.783" y="1.001" width="144.434" height="202.591"/>
		</defs>
		<clipPath id="SVGID_8_">
			<use xlink:href="#SVGID_7_"  overflow="visible"/>
		</clipPath>
		<path clip-path="url(#SVGID_8_)" fill="#6B2161" d="M161.466,19.661c-0.143,10.156-8.481,18.28-18.639,18.138
			c-10.146-0.143-18.26-8.491-18.118-18.653c0.143-10.162,8.48-18.28,18.634-18.138C153.499,1.15,161.612,9.501,161.466,19.661"/>
	</g>
	<g>
		<defs>
			<rect id="SVGID_9_" x="71.783" y="1.001" width="144.434" height="202.591"/>
		</defs>
		<clipPath id="SVGID_10_">
			<use xlink:href="#SVGID_9_"  overflow="visible"/>
		</clipPath>
		<path clip-path="url(#SVGID_10_)" fill="#8E4096" d="M189.086,145.468c-0.837-0.123-1.592-0.339-2.286-0.613
			c-2.148,0.367-1.709-0.011-3.915,0.217c-0.359,0.03-3.388-3.832-3.445-2.295c0.449,7.78-2.858,14.182-4.604,15.928
			c-5.437,5.141-14.539,8.121-31.247,8.121c-10.145,0-18.264,8.42-18.166,18.559c0.119,10.139,9.511,18.209,20,18.209
			c26.003-0.264,43.949-7.113,56.229-20.264c8.91-9.547,13.923-24.137,14.564-38.94
			C208.577,142.023,197.729,146.747,189.086,145.468"/>
	</g>
	<g>
		<defs>
			<rect id="SVGID_11_" x="71.783" y="1.001" width="144.434" height="202.591"/>
		</defs>
		<clipPath id="SVGID_12_">
			<use xlink:href="#SVGID_11_"  overflow="visible"/>
		</clipPath>
		<path clip-path="url(#SVGID_12_)" fill="#73BC44" d="M141.843,120.595c36.614,4.848,37.26,16.052,37.468,19.737
			c0.069,1.288,0.089,2.468,0.069,3.581c12.259-1.14,24.444-3.172,36.687-0.794c0,0.003,0-0.003,0-0.003
			c0-1.611-0.022-3.234-0.119-4.901c-0.737-12.844-6.312-30.65-28.659-42.521c-10.498-5.578-23.401-9.234-40.622-11.512
			c-1.329-0.18-2.644-0.213-3.932-0.1c-8.424,0.693-15.52,7.171-16.673,15.899C124.736,110.042,131.803,119.265,141.843,120.595"/>
	</g>
	<g>
		<defs>
			<rect id="SVGID_13_" x="71.783" y="1.001" width="144.434" height="202.591"/>
		</defs>
		<clipPath id="SVGID_14_">
			<use xlink:href="#SVGID_13_"  overflow="visible"/>
		</clipPath>
		<path clip-path="url(#SVGID_14_)" fill="#F7A51C" d="M97.36,155.97c2.835-0.229,5.756,0.193,8.55,1.359
			c15.325,6.402,27.88,9.496,38.089,9.496c10.12,0,16.299,8.238,16.407,18.383c0.105,10.139-4.045,17.217-14.534,18.379
			c-14.88,0.156-33.864-3.91-54.081-12.355c-9.353-3.906-13.775-14.664-9.872-24.025C84.653,160.649,90.74,156.515,97.36,155.97"/>
	</g>
	<g>
		<defs>
			<rect id="SVGID_15_" x="71.783" y="1.001" width="144.434" height="202.591"/>
		</defs>
		<clipPath id="SVGID_16_">
			<use xlink:href="#SVGID_15_"  overflow="visible"/>
		</clipPath>
		<path clip-path="url(#SVGID_16_)" fill="#E71561" d="M126.71,186.698c-0.83-10.125,6.695-19.012,16.814-19.842
			c10.118-0.832,18.983,6.701,19.815,16.826c0.838,10.125-6.69,19.008-16.803,19.844C136.415,204.36,127.54,196.829,126.71,186.698"
			/>
	</g>
	<g>
		<defs>
			<rect id="SVGID_17_" x="71.783" y="1.001" width="144.434" height="202.591"/>
		</defs>
		<clipPath id="SVGID_18_">
			<use xlink:href="#SVGID_17_"  overflow="visible"/>
		</clipPath>
		<path clip-path="url(#SVGID_18_)" fill="#F27124" d="M71.846,60.086c-0.83-10.124,6.693-19.012,16.817-19.843
			c10.115-0.835,19.183,7.073,20.03,17.402c0.851,10.331-6.905,18.433-17.019,19.268c-10.119,0.837-19.001-6.706-19.828-16.833"/>
	</g>
	<g>
		<defs>
			<rect id="SVGID_19_" x="71.783" y="1.001" width="144.434" height="202.591"/>
		</defs>
		<clipPath id="SVGID_20_">
			<use xlink:href="#SVGID_19_"  overflow="visible"/>
		</clipPath>
		<path clip-path="url(#SVGID_20_)" fill="#0A8743" d="M162.42,100.965c0.828,10.122-7.006,18.641-17.021,19.461
			c-10.463,1.371-18.785-6.322-19.611-16.443c-0.835-10.127,6.89-18.985,17.312-19.84C153.52,83.281,161.583,90.842,162.42,100.965"
			/>
	</g>
	<g>
		<defs>
			<rect id="SVGID_21_" x="71.783" y="1.001" width="144.434" height="202.591"/>
		</defs>
		<clipPath id="SVGID_22_">
			<use xlink:href="#SVGID_21_"  overflow="visible"/>
		</clipPath>
		<path clip-path="url(#SVGID_22_)" fill="#1C4682" d="M198.088,161.687c9.931,0,17.379-8.359,17.379-18.193
			c0-9.835-7.448-17.797-17.379-17.797c-9.927,0-17.979,8.057-17.979,17.995C180.109,153.63,188.161,161.687,198.088,161.687"/>
	</g>
	<g>
		<defs>
			<rect id="SVGID_23_" x="71.783" y="1.001" width="144.434" height="202.591"/>
		</defs>
		<clipPath id="SVGID_24_">
			<use xlink:href="#SVGID_23_"  overflow="visible"/>
		</clipPath>
		<path clip-path="url(#SVGID_24_)" fill="none" stroke="#1C4682" d="M198.088,161.687c9.931,0,17.379-8.359,17.379-18.193
			c0-9.835-7.448-17.797-17.379-17.797c-9.927,0-17.979,8.057-17.979,17.995C180.109,153.63,188.161,161.687,198.088,161.687z"/>
	</g>
</g>
</svg>
