<?xml version="1.0" encoding="utf-8"?>
<!-- Generator: Adobe Illustrator 17.0.0, SVG Export Plug-In . SVG Version: 6.00 Build 0)  -->
<!DOCTYPE svg PUBLIC "-//W3C//DTD SVG 1.1//EN" "http://www.w3.org/Graphics/SVG/1.1/DTD/svg11.dtd">
<svg version="1.1" id="Layer_1" xmlns="http://www.w3.org/2000/svg" xmlns:xlink="http://www.w3.org/1999/xlink" x="0px" y="0px"
	 width="288px" height="288px" viewBox="0 0 288 288" enable-background="new 0 0 288 288" xml:space="preserve">
<g>
	<g>
		<defs>
			<path id="SVGID_1_" d="M151.139,19.093"/>
		</defs>
		<clipPath id="SVGID_2_">
			<use xlink:href="#SVGID_1_"  overflow="visible"/>
		</clipPath>
	</g>
	<path fill="#EA1361" d="M142.689,1.037C116.667,1.3,97.226,8.11,84.937,21.261c-8.81,9.434-13.61,21.558-14.34,36.109
		c12.251-0.014,24.459,1.828,36.696,1.553c0.494-8.28,3.416-11.429,4.494-12.58c5.081-5.451,15.91-8.412,31.278-8.574
		c10.15-0.112,18.278-8.418,18.177-18.56C161.137,9.069,152.83,0.93,142.689,1.037"/>
	<g>
		<defs>
			<rect id="SVGID_3_" x="70.495" y="60.325" width="90.27" height="60.248"/>
		</defs>
		<clipPath id="SVGID_4_">
			<use xlink:href="#SVGID_3_"  overflow="visible"/>
		</clipPath>
		<path clip-path="url(#SVGID_4_)" fill="#FDDB00" d="M144.802,83.997c-36.636-4.846-37.289-16.05-37.503-19.734
			c-0.081-1.421-0.088-2.722-0.067-3.934C95.092,61.113,82.9,59.803,70.734,60.64c-0.073,0.007-0.161,0.007-0.235,0.007
			c-0.015,1.882,0.014,3.783,0.126,5.728c0.744,12.845,6.32,30.655,28.701,42.527c10.491,5.572,23.412,9.229,40.666,11.507
			c1.32,0.182,2.64,0.206,3.926,0.103c8.427-0.695,15.527-7.173,16.689-15.9C161.934,94.557,154.851,85.331,144.802,83.997"/>
	</g>
	<path fill="#51C4D6" d="M189.331,48.62c-2.83,0.234-5.764-0.188-8.566-1.355c-15.338-6.405-28.024-9.6-37.699-9.496
		c-10.145,0.1-18.452-8.035-18.55-18.179c-0.112-10.142,8.012-18.459,18.174-18.552c14.89-0.157,31.973,3.877,52.232,12.321
		c9.362,3.905,13.77,14.663,9.873,24.025C202.056,43.941,195.953,48.077,189.331,48.62"/>
	<path fill="#6C1F60" d="M159.953,17.894c0.831,10.123-6.7,19.009-16.83,19.84c-10.124,0.833-19.01-6.699-19.841-16.827
		c-0.833-10.129,6.698-19.011,16.829-19.844C150.241,0.229,159.124,7.765,159.953,17.894"/>
	<g>
		<defs>
			<path id="SVGID_5_" d="M134.037,185.505"/>
		</defs>
		<clipPath id="SVGID_6_">
			<use xlink:href="#SVGID_5_"  overflow="visible"/>
		</clipPath>
	</g>
	<path fill="#8E4096" d="M187.659,145.47c-0.835-0.122-1.594-0.339-2.288-0.614c-2.149,0.366-4.298,0.703-6.461,0.923
		c-0.357,0.032-0.696,0.047-1.039,0.051c-0.527,8.158-3.403,11.279-4.477,12.423c-5.092,5.448-15.902,8.41-31.278,8.572
		c-10.154,0.113-18.283,8.42-18.185,18.56c0.119,10.141,8.419,18.28,18.56,18.174c26.025-0.264,45.456-7.078,57.746-20.228
		c8.919-9.548,13.733-21.863,14.373-36.667C205.8,148.214,196.311,146.75,187.659,145.47"/>
	<g>
		<defs>
			<rect id="SVGID_7_" x="124.417" y="84.018" width="90.257" height="59.898"/>
		</defs>
		<clipPath id="SVGID_8_">
			<use xlink:href="#SVGID_7_"  overflow="visible"/>
		</clipPath>
		<path clip-path="url(#SVGID_8_)" fill="#73BD45" d="M140.371,120.597c36.649,4.848,37.295,16.05,37.506,19.737
			c0.07,1.287,0.085,2.464,0.07,3.579c12.268-1.14,24.467-3.174,36.721-0.793c0,0.004,0.01,0.004,0.01,0.004
			c0-1.612-0.032-3.239-0.13-4.906c-0.737-12.845-6.319-30.65-28.686-42.521c-10.509-5.578-23.426-9.235-40.663-11.513
			c-1.334-0.18-2.647-0.21-3.936-0.1c-8.434,0.693-15.538,7.171-16.689,15.898C123.247,110.041,130.322,119.267,140.371,120.597"/>
	</g>
	<path fill="#F8A51C" d="M95.843,155.974c2.837-0.23,5.762,0.192,8.56,1.359c15.34,6.403,28.026,9.596,37.717,9.492
		c10.13-0.101,18.442,8.038,18.55,18.18c0.105,10.141-8.016,18.456-18.178,18.554c-14.894,0.154-31.986-3.877-52.225-12.324
		c-9.361-3.905-13.788-14.663-9.88-24.025C83.125,160.651,89.217,156.517,95.843,155.974"/>
	<path fill="#EA1361" d="M125.222,186.702c-0.829-10.127,6.702-19.014,16.832-19.843c10.127-0.831,19.003,6.7,19.835,16.827
		c0.837,10.126-6.696,19.009-16.818,19.844C134.94,204.364,126.053,196.833,125.222,186.702"/>
	<path fill="#1C4481" d="M177.829,146.513c-0.829-10.124,6.706-19.01,16.833-19.844c10.126-0.831,19.002,6.702,19.838,16.831
		c0.828,10.121-6.7,19.009-16.827,19.843C187.548,164.174,178.664,156.635,177.829,146.513"/>
	<path fill="#F17024" d="M70.302,60.084c-0.831-10.124,6.699-19.013,16.833-19.843c10.127-0.835,19.002,6.702,19.835,16.827
		c0.836,10.127-6.696,19.009-16.819,19.843C80.021,77.745,71.13,70.212,70.302,60.084"/>
	<path fill="#0C8643" d="M160.969,100.966c0.828,10.121-6.706,19.009-16.836,19.84c-10.131,0.834-19.006-6.702-19.835-16.823
		c-0.836-10.129,6.692-19.013,16.818-19.843C151.242,83.305,160.132,90.842,160.969,100.966"/>
</g>
<g>
	<path fill="#51C4D6" d="M36.906,280.147c-1.064-0.761-1.827-2.059-1.827-3.576c0-2.439,1.981-4.341,4.419-4.341
		c1.292,0,2.13,0.378,2.74,0.836c4.415,3.505,9.138,5.482,14.926,5.482c5.789,0,9.445-2.741,9.445-6.704v-0.148
		c0-3.809-2.133-5.866-12.033-8.148c-11.349-2.74-17.746-6.097-17.746-15.919v-0.155c0-9.134,7.615-15.459,18.201-15.459
		c6.704,0,12.11,1.754,16.907,4.956c1.067,0.606,2.056,1.902,2.056,3.725c0,2.438-1.978,4.34-4.414,4.34
		c-0.915,0-1.677-0.223-2.438-0.681c-4.114-2.667-8.074-4.037-12.263-4.037c-5.481,0-8.681,2.815-8.681,6.318v0.155
		c0,4.111,2.437,5.941,12.718,8.378c11.271,2.742,17.059,6.779,17.059,15.608v0.156c0,9.978-7.844,15.919-19.041,15.919
		C49.702,286.852,42.846,284.564,36.906,280.147z"/>
	<path fill="#51C4D6" d="M85.982,234.68c0-2.511,1.979-4.57,4.571-4.57c2.589,0,4.645,2.059,4.645,4.57v17.363
		c2.588-3.732,6.318-7.008,12.566-7.008c9.064,0,14.316,6.096,14.316,15.385v21.482c0,2.587-1.978,4.565-4.567,4.565
		c-2.589,0-4.648-1.979-4.648-4.565v-18.659c0-6.244-3.122-9.828-8.604-9.828c-5.333,0-9.062,3.732-9.062,9.977v18.511
		c0,2.587-2.056,4.565-4.645,4.565c-2.515,0-4.571-1.979-4.571-4.565V234.68z"/>
	<path fill="#51C4D6" d="M131.015,266.213v-0.154c0-11.498,9.14-21.023,21.478-21.023c12.338,0,21.4,9.37,21.4,20.868v0.155
		c0,11.423-9.137,20.941-21.553,20.941C140.077,287,131.015,277.636,131.015,266.213z M164.678,266.213v-0.154
		c0-7.082-5.105-12.949-12.338-12.949c-7.389,0-12.11,5.793-12.11,12.793v0.155c0,7.007,5.104,12.873,12.263,12.873
		C159.956,278.932,164.678,273.141,164.678,266.213z"/>
	<path fill="#51C4D6" d="M219.007,281.902c0,2.512-2.059,4.565-4.647,4.565c-2.512,0-4.646-1.979-4.646-4.565v-2.059
		c-2.588,3.808-6.322,7.082-12.566,7.082c-9.061,0-14.318-6.09-14.318-15.46v-21.401c0-2.591,2.059-4.644,4.569-4.644
		c2.59,0,4.646,2.052,4.646,4.644v18.66c0,6.245,3.122,9.749,8.606,9.749c5.33,0,9.062-3.659,9.062-9.903v-18.505
		c0-2.591,2.057-4.644,4.646-4.644c2.514,0,4.647,2.052,4.647,4.644V281.902z"/>
	<path fill="#51C4D6" d="M232.434,274.97v-21.171h-1.521c-2.211,0-3.963-1.755-3.963-3.963c0-2.208,1.752-3.957,3.963-3.957h1.521
		v-6.858c0-2.512,2.057-4.571,4.646-4.571c2.513,0,4.569,2.06,4.569,4.571v6.858h7.233c2.211,0,4.037,1.749,4.037,3.957
		c0,2.208-1.826,3.963-4.037,3.963h-7.233v19.726c0,3.578,1.826,5.023,4.948,5.023c1.067,0,1.982-0.229,2.285-0.229
		c2.057,0,3.885,1.679,3.885,3.806c0,1.683-1.14,3.052-2.437,3.585c-1.98,0.681-3.885,1.067-6.321,1.067
		C237.232,286.777,232.434,283.808,232.434,274.97z"/>
</g>
</svg>
